# xmcd
#
# Track frame offsets:
#	150
#	25341
#	51578
#	66448
#	88151
#	108622
#	128200
#	153857
#
# Disc length: 2410 seconds
#
# Revision: 2
# Processed by: cddbd v1.5.2PL0 Copyright (c) Steve Scherf et al.
# Submitted via: audiograbber 1.83.01
#
DISCID=71096808
DTITLE=Watussi - Orlando Castillo - Uds Mi rumba y Yo - Ustedes, Mi Rumba y Yo
DYEAR=1996
DGENRE=Salsa
TTITLE0=Ustedes mi rumba y yo
TTITLE1=Los pueblos de mi pais
TTITLE2=Considerando
TTITLE3=La linea
TTITLE4=Sonero del pueblo
TTITLE5=Gracias vida
TTITLE6=Consonancia
TTITLE7=Alli estare
EXTD=
EXTT0=
EXTT1=
EXTT2=
EXTT3=
EXTT4=
EXTT5=
EXTT6=
EXTT7=
PLAYORDER=
